<svg version="1" xmlns="http://www.w3.org/2000/svg" width="933.333" height="933.333" viewBox="0 0 700.000000 700.000000"><path d="M198 133.4c-45.4 5-78.1 16.5-109.4 38.2-30.3 21-49.3 51.5-56.8 90.5-2 10.8-2.1 14.8-2.5 80.9-.5 72.7-.1 82.1 3.8 101.5 8.9 43.4 32.2 74.5 72.4 96.3 26.3 14.2 57.9 22.8 97.5 26.3 16.9 1.5 58.1.6 74-1.6 23.5-3.2 46.3-9.1 62.7-16.2l8.3-3.5 8.7 3.5c31.7 12.6 57.9 17.4 99.9 18.4 47.2 1.1 83.6-4.4 119-18 12.9-5 22.3-9.9 34.9-18.2 40.9-27.1 60.5-61 60.5-104.9 0-43.7-15.5-76-46.4-96.8-26.5-17.7-61.2-28.4-119.6-36.8-34.9-5-48-7.9-56.8-12.5-8.3-4.3-11.2-7.9-11.2-13.8 0-10.8 9-15.9 28.4-15.8 13.5 0 20.9 2.3 30.9 9.6 14.8 10.8 7.6 10 83.3 10.3l66 .3 3.4-2.3c5.4-3.8 7.2-8.1 6.7-16.3-2.1-30.1-24.2-60.6-62.9-86.8C560.1 143.5 517.1 132 467 132c-41.1 0-74.7 6.5-103.6 20l-10.1 4.7-7.4-3.4c-17.7-8.2-43.7-15.3-69.4-18.8-15.9-2.2-62.6-2.8-78.5-1.1zm46.3 118.7c10.8 2.1 22.6 10.8 27.5 20.4 4.8 9.5 11.2 23.6 11.2 24.9 0 .7 1.1 5.3 2.5 10.1 11.7 40.3 45.9 68.4 103.5 84.8 17.1 4.9 27.2 7.1 54.8 11.7 37.6 6.4 59.6 12.8 66.6 19.4 7 6.6 5.5 15.8-3.4 20.3-14.2 7.3-51.7 7.5-68.4.4l-4.3-1.9.8-5.8c.5-3.3.9-10 1-15 .2-10.3-1.2-14.1-6.7-17.5-3-1.8-5.7-1.9-69-1.9-42.9 0-67.2.4-69.7 1.1-6.4 1.8-10.1 5.9-14.7 16.9-6.5 15.4-12.2 21.6-23.9 26-9.3 3.6-25.8 4.2-36.6 1.5-5.7-1.5-14.2-6.4-17.5-10.1-4.1-4.8-7.9-13-9.6-20.9-1.9-8.7-1.9-124.3 0-133 2.8-13.4 9.1-22.7 18.5-27.4 10.8-5.5 23.2-6.8 37.4-4z"/></svg>